# Blender 4.3.2
# www.blender.org
mtllib Crate.mtl
o Cube
v 0.511992 0.000000 -0.500000
v 0.511992 0.000000 0.500000
v -0.488008 0.000000 0.500000
v -0.488008 0.000000 -0.500000
v 0.509635 0.999987 -0.500463
v 0.509634 0.999987 0.499537
v -0.488008 1.000000 0.500000
v -0.488008 1.000000 -0.500000
v 0.436791 0.999987 -0.427619
v 0.436790 0.999987 0.426693
v -0.415164 1.000000 -0.427156
v -0.415164 1.000000 0.427156
v -0.488008 0.057606 0.442393
v -0.488008 0.057606 -0.442394
v -0.488008 0.942394 0.442393
v -0.488008 0.942393 -0.442394
v 0.459629 0.052363 -0.500000
v -0.435645 0.052363 -0.500000
v 0.459629 0.947637 -0.500000
v -0.435645 0.947637 -0.500000
v 0.511992 0.044380 -0.455620
v 0.511992 0.044380 0.455620
v 0.511992 0.955620 -0.455619
v 0.511991 0.955620 0.455620
v 0.457870 0.054122 0.500000
v -0.433886 0.054122 0.500000
v 0.457870 0.945878 0.500000
v -0.433887 0.945878 0.500000
v 0.452409 0.000000 -0.440417
v 0.452409 0.000000 0.440417
v -0.428425 0.000000 -0.440417
v -0.428425 0.000000 0.440417
vn -0.0000 -1.0000 -0.0000
vn -0.0000 1.0000 -0.0000
vn 1.0000 -0.0000 -0.0000
vn -0.0000 -0.0000 1.0000
vn -1.0000 -0.0000 -0.0000
vn -0.0000 -0.0000 -1.0000
vn -0.0000 -0.0089 -1.0000
vn 0.9986 -0.0000 -0.0525
vn 0.9986 0.0531 -0.0000
vn 0.0084 0.0005 1.0000
vn 0.0005 0.0005 1.0000
vn -0.0088 -0.0005 -1.0000
vn -0.0005 -0.0005 -1.0000
vn 1.0000 0.0024 -0.0024
vn 0.9987 0.0024 0.0512
vn -0.0000 0.0086 1.0000
vt 0.001117 1.001310
vt 1.000171 -0.003578
vt 1.000171 1.001309
vt -0.004985 0.999539
vt 1.006044 -0.009568
vt 1.006038 1.000093
vt -0.006145 -0.004128
vt 0.998940 0.990495
vt -0.006493 0.990152
vt 0.998116 0.998985
vt 0.008698 -0.010076
vt 0.998116 -0.010076
vt -0.000181 0.000305
vt 0.998676 1.003552
vt -0.000181 1.003552
vt -0.010094 -0.006201
vt 1.006155 1.003563
vt -0.010095 1.003563
vt 0.101741 0.900411
vt 0.949369 0.811617
vt 0.882774 0.900410
vt 0.914561 0.821146
vt 0.034999 0.913481
vt 0.104251 0.821059
vt 0.123907 0.905572
vt 0.969380 0.816816
vt 0.902812 0.905655
vt 0.883739 0.801378
vt 0.055128 0.888180
vt 0.120229 0.801378
vt 0.060936 0.833095
vt 0.986634 0.908541
vt 0.004352 0.908541
vt 0.067812 0.890150
vt 0.980752 0.820875
vt 0.924727 0.894949
vt 0.933718 0.837420
vt 0.004471 0.919869
vt 0.060987 0.843697
vt 0.064012 0.911816
vt 0.974869 0.837577
vt 0.919190 0.911816
vt 0.907360 0.851728
vt 0.064273 0.913843
vt 0.110858 0.851728
vt 0.060499 0.920833
vt 0.984596 0.852685
vt 0.933537 0.920770
vt 0.927692 0.845924
vt 0.020089 0.912807
vt 0.070240 0.845937
vt 0.924487 0.847115
vt 0.012934 0.914709
vt 0.061145 0.847380
vt 0.056668 0.869755
vt 0.985815 0.812221
vt 0.942663 0.869756
vt 0.071710 0.876290
vt 0.989014 0.813183
vt 0.946612 0.870926
vt 0.906196 0.831589
vt 0.022531 0.894240
vt 0.063306 0.839144
vt 0.926677 0.836915
vt 0.017740 0.893288
vt 0.059533 0.836914
vt 0.058476 0.915890
vt 0.985555 0.845161
vt 0.932510 0.915888
vt 0.921543 0.872066
vt 0.024291 0.804758
vt 0.972819 0.806532
vt 0.099938 0.869570
vt 0.944433 0.799998
vt 0.896320 0.864735
vt 0.067988 0.835645
vt 0.970205 0.904647
vt 0.016235 0.904646
vt 0.917335 0.812788
vt 0.012425 0.889232
vt 0.069758 0.812788
vt 0.059224 0.909092
vt 0.990782 0.830396
vt 0.931761 0.909092
vt 0.909649 0.821337
vt 0.043321 0.894522
vt 0.098209 0.821338
vt 0.076265 0.909185
vt 0.996360 0.831457
vt 0.938065 0.909184
vt 0.001117 -0.003578
vt -0.004979 -0.010121
vt 0.999288 -0.003784
vt 0.008697 0.998984
vt 0.998675 0.000305
vt 1.006155 -0.006201
vt 0.035145 0.811617
vt 0.983876 0.913481
vt 0.057277 0.816816
vt 0.948840 0.888180
vt 0.930048 0.833094
vt 0.012255 0.815449
vt 0.990846 0.912775
vt 0.008333 0.837577
vt 0.953946 0.913843
vt 0.009446 0.855815
vt 0.977844 0.912791
vt 0.974994 0.914426
vt 0.013517 0.812221
vt 0.028903 0.819736
vt 0.947508 0.885462
vt 0.969352 0.893288
vt 0.005430 0.845161
vt 0.075676 0.873142
vt 0.051385 0.805418
vt 0.920707 0.835657
vt 0.974669 0.889232
vt 0.000202 0.830396
vt 0.964538 0.894522
vt 0.017970 0.831457
s 0
usemtl Material
f 30/1/1 31/2/1 29/3/1
f 11/4/2 10/5/2 9/6/2
f 23/7/3 22/8/3 21/9/3
f 27/10/4 26/11/4 25/12/4
f 15/13/5 14/14/5 13/15/5
f 17/16/6 20/17/6 19/18/6
f 10/19/2 5/20/2 9/21/2
f 9/22/2 8/23/2 11/24/2
f 12/25/2 6/26/2 10/27/2
f 11/28/2 7/29/2 12/30/2
f 13/31/5 4/32/5 3/33/5
f 13/34/5 7/35/5 15/36/5
f 16/37/5 4/38/5 14/39/5
f 15/40/5 8/41/5 16/42/5
f 17/43/6 4/44/6 18/45/6
f 19/46/6 1/47/6 17/48/6
f 18/49/6 8/50/6 20/51/6
f 20/52/7 5/53/7 19/54/7
f 22/55/3 1/56/3 21/57/3
f 21/58/8 5/59/8 23/60/8
f 24/61/3 2/62/3 22/63/3
f 23/64/9 6/65/9 24/66/9
f 26/67/4 2/68/4 25/69/4
f 27/70/10 2/71/10 6/72/10
f 28/73/4 3/74/4 26/75/4
f 28/76/11 6/77/11 7/78/11
f 29/79/1 2/80/1 30/81/1
f 31/82/1 1/83/1 29/84/1
f 30/85/1 3/86/1 32/87/1
f 32/88/1 4/89/1 31/90/1
f 30/1/1 32/91/1 31/2/1
f 11/4/2 12/92/2 10/5/2
f 23/7/3 24/93/3 22/8/3
f 27/10/4 28/94/4 26/11/4
f 15/13/5 16/95/5 14/14/5
f 17/16/6 18/96/6 20/17/6
f 10/19/2 6/97/2 5/20/2
f 9/22/2 5/98/2 8/23/2
f 12/25/2 7/99/2 6/26/2
f 11/28/2 8/100/2 7/29/2
f 13/31/5 14/101/5 4/32/5
f 13/34/5 3/102/5 7/35/5
f 16/37/5 8/103/5 4/38/5
f 15/40/5 7/104/5 8/41/5
f 17/43/6 1/105/6 4/44/6
f 19/46/12 5/106/12 1/47/12
f 18/49/6 4/107/6 8/50/6
f 20/52/13 8/108/13 5/53/13
f 22/55/3 2/109/3 1/56/3
f 21/58/14 1/110/14 5/59/14
f 24/61/15 6/111/15 2/62/15
f 23/64/9 5/112/9 6/65/9
f 26/67/4 3/113/4 2/68/4
f 27/70/4 25/114/4 2/71/4
f 28/73/4 7/115/4 3/74/4
f 28/76/16 27/116/16 6/77/16
f 29/79/1 1/117/1 2/80/1
f 31/82/1 4/118/1 1/83/1
f 30/85/1 2/119/1 3/86/1
f 32/88/1 3/120/1 4/89/1
